# xmcd
# 
# Track frame offsets:
#     150
#     16112
#     30900
#     48862
#     68105
#     80067
#     104754
#     116525
#     132060
#     145670
#     158902
#     176670
# 
# Disc length: 2603
# 
# Revision: 2
# Processed by: cddbd v1.5.2PL0 Copyright (c) Steve Scherf et al.
# Submitted via: fre:ac v1.0.31
# 
DISCID=950a290c
DTITLE=Columbia Blues - Jimmy McCracklin High On The Blues
DYEAR=0
DGENRE=Blues
TTITLE0=Double Dealing
TTITLE1=Just Got to Know
TTITLE2=Stay Away from that Monkey
TTITLE3=Yesterday is Gone
TTITLE4=Would Man be Satisfied
TTITLE5=Like My Mama
TTITLE6=I Finally Got You
TTITLE7=You're the One
TTITLE8=The Love Money Can't Buy
TTITLE9=Think
TTITLE10=I Got Somebody
TTITLE11=Girl Stealer
EXTD=Produced and arranged by Al Jackson and Willie Mitchell.\nRecorded May 5, July 6-8, and October 1, 1971.\nDigital remastering, 1992 - Phil De Lancie (Fantasy Studios, Berkeley]\nSelections 1-10 originally released as "Yesterday Is Gone" (Stax 2047).
EXTT0=
EXTT1=
EXTT2=
EXTT3=
EXTT4=
EXTT5=
EXTT6=
EXTT7=
EXTT8=
EXTT9=
EXTT10=
EXTT11=
PLAYORDER=
